<?xml version="1.0" encoding="utf-8"?>
<!-- Generator: Adobe Illustrator 16.0.3, SVG Export Plug-In . SVG Version: 6.00 Build 0)  -->
<!DOCTYPE svg PUBLIC "-//W3C//DTD SVG 1.1//EN" "http://www.w3.org/Graphics/SVG/1.1/DTD/svg11.dtd">
<svg version="1.1" id="Layer_1" xmlns="http://www.w3.org/2000/svg" xmlns:xlink="http://www.w3.org/1999/xlink" x="0px" y="0px"
	 width="800px" height="400px" viewBox="0 0 800 400" enable-background="new 0 0 800 400" xml:space="preserve">
<g>
	<path fill="#F2F6F7" d="M705,231v-64H536v64H705z M649,205.007V175h31.211h7.11H689v18.212v11.795V207h-1.679h-11.795h-22.631H649
		V205.007z M605,205.007v-7.112V175h21.356h1.597H628v20.762v9.245V207h-1.644h-9.245H605V205.007z M562,205.007v-7.112V175h20.811
		h1.597H585v20.762v9.245V207h-2.189h-9.245H562V205.007z"/>
	<path fill="#F2F6F7" d="M210,231v-64H53v64H210z M173,205.007v-7.112V175h21.378h1.597H196v20.762v9.245V207h-1.622h-9.245H173
		V205.007z M132,205.007v-7.112V175h20.573h1.598H154v20.762v9.245V207h-1.427h-9.245H132V205.007z M71,205.007V175h30.916h7.111
		H111v18.212v11.795V207h-1.973H97.231H74.603H71V205.007z"/>
	<rect x="741" y="167" fill="#F2F6F7" width="30" height="64"/>
	<path fill="#F2F6F7" d="M463,231v-64H283v64H463z M405,205.007v-7.112V175h21.044h1.597H428v20.762v9.245V207h-1.956h-9.245H405
		V205.007z M363,205h1.936c0.812-4,4.424-7.199,8.766-7.199c4.341,0,7.954,3.199,8.765,7.199H384v3h-1.533
		c-0.812,5-4.424,7.199-8.765,7.199c-4.341,0-7.954-2.199-8.766-7.199H363V205z M318,205.007v-7.112V175h20.951h1.597H341v20.762
		v9.245V207h-2.049h-9.245H318V205.007z"/>
	<path fill="#F2F6F7" d="M373.702,200.594c-2.787,0-5.112,1.406-5.867,4.406h11.732C378.812,202,376.486,200.594,373.702,200.594z"
		/>
	<path fill="#F2F6F7" d="M373.702,212.405c2.785,0,5.11-1.405,5.865-4.405h-11.732C368.59,211,370.915,212.405,373.702,212.405z"/>
	<path fill="#26B4DB" d="M770.955,141.765c-0.008,0.328-0.025,0.536-0.025,0.536S770.95,142.104,770.955,141.765z"/>
	<path fill="#B6BCBF" d="M334.262,130H34.128C16.492,130,18,142.3,18,142.3V158h288.392L334.262,130z"/>
	<path fill="#B6BCBF" d="M338.416,158H771v-15.7c0,0-0.018-0.261-0.01-0.589c0.071-2.565-0.419-13.711-13.995-11.711h-390.71
		L338.416,158z"/>
	<rect x="536" y="231" fill="#113B92" width="169" height="14"/>
	<polygon fill="#113B92" points="53.288,231 39,231 39,245 210,245 210,231 	"/>
	<rect x="283" y="231" fill="#113B92" width="180" height="14"/>
	<rect x="741" y="231" fill="#113B92" width="30" height="14"/>
	<polygon fill="#8C949B" points="304.65,160 39,160 39,167 53.288,167 210.055,167 246.633,167 248.375,167 283.212,167 
		462.623,167 499.201,167 500.943,167 535.78,167 704.739,167 741.318,167 771,167 771,160 336.674,160 	"/>
	<path fill="#222526" d="M783,245v2h-3v-5h-6v3h-3.07h-29.611h-36.579H535.78h-34.837h-1.742h-36.578H283.212h-34.837h-1.742
		h-36.579H39.354h-1.742H20.193h-1.742H15v2h-4v-2H8v5h1.742h1.742H15v4h3.451H20v5H10v3h10v7h14v-4.349L43.259,256H48v3h5v-3h2v-2
		h7v3.779l-12,11.676V283h24.747c2.706,7,8.976,10.742,16.282,10.742S104.604,290,107.311,283H181
		c2.706,7,8.975,10.742,16.282,10.742c7.307,0,13.576-3.742,16.282-10.742H238v-13.545l-14-14.207V254h19v8h9v13h21v3h14v-3h19v-13
		h5v11h24v5h41v-5h6v5h11v-5h5v5h18v-5h3v7h40v-7h12v-11h16v14h40v-14h12v-8h21v2.037l-12,11.676V282h24.915
		c2.706,6,8.977,10.742,16.282,10.742S602.773,288,605.479,282h73.688c2.706,6,8.977,10.742,16.282,10.742S709.026,288,711.732,282
		H736v-14.287L722.425,254H740v2h1v3h6v-3h4.348l8.652,8.651V269h14v-15h6v-4h3.123h1.741H787v-5H783z"/>
	<path fill="#DC241F" d="M283,167h-35v78h35v-13.865V167z M254,205.007v-7.112V175h20.503h1.597H276v20.762v9.245V207h-1.497h-9.245
		H254V205.007z"/>
	<path fill="#DC241F" d="M247,167h-37v64.135V245h37V167z M217,205.007v-7.112V175h20.924h1.598H240v20.762v9.245V207h-2.076h-9.245
		H217V205.007z"/>
	<polygon fill="#C3DEE5" points="153,205 153,197.503 145.07,205 	"/>
	<polygon fill="#C3DEE5" points="153,175 132,175 132,197.895 153,176.993 	"/>
	<polygon fill="#D9E9ED" points="153,197.503 153,176.993 132,197.895 132,205 145.07,205 	"/>
	<polygon fill="#C3DEE5" points="72.583,204.527 101.916,175 71,175 71,205 72.862,205 	"/>
	<polygon fill="#C3DEE5" points="109,205 109,194.954 98.973,205 	"/>
	<polygon fill="#D9E9ED" points="72.862,205 98.973,205 109,194.954 109,175 101.916,175 72.583,204.527 	"/>
	<rect x="39" y="167" fill="#BFC0C1" width="14" height="64"/>
	<rect x="247" y="167" fill="#555759" width="1" height="78"/>
	<path fill="#DC241F" d="M536,167h-35v78h35v-13.865V167z M506,205.007v-7.112V175h21.071h1.597H529v20.762v9.245V207h-1.929h-9.245
		H506V205.007z"/>
	<path fill="#DC241F" d="M499,167h-36v64.135V245h36V167z M470,205.007v-7.112V175h20.492h1.598H492v20.762v9.245V207h-1.508h-9.245
		H470V205.007z"/>
	<path fill="#DC241F" d="M741,167h-36v64.135V245h36v-13.865V167z M712,205.007v-7.112V175h20.609h1.597H734v20.762v9.245V207
		h-1.391h-9.245H712V205.007z"/>
	<rect x="499" y="167" fill="#555759" width="2" height="78"/>
	<polygon fill="#DC241F" points="38,245 38,231.135 38,166.686 38,160 34.128,160 18,160 18,167 25.418,167 27,167 27,199.781 
		27,202 25.418,202 18,202 18,231.135 18,245 20.193,245 	"/>
	<polygon fill="#C3DEE5" points="25,167 18,167 18,187.888 25,180.92 	"/>
	<polygon fill="#C3DEE5" points="25,190.772 18,197.74 18,200 25,200 	"/>
	<polygon fill="#B72525" points="39,166.686 39,160 38,160 38,166.686 38,231.135 38,245 39,245 39,231.135 	"/>
	<polygon fill="#D9E9ED" points="25,180.92 18,187.888 18,197.74 25,190.772 	"/>
	<polygon fill="#94AAAF" points="27,202 27,199.781 27,167 25,167 25,180.92 25,190.772 25,200 18,200 18,202 25.418,202 	"/>
	<polygon fill="#AFC8CE" points="97.231,207 109.027,207 111,207 111,205.007 111,193.212 111,175 109,175 109,194.954 109,205 
		98.973,205 72.862,205 71,205 71,207 74.603,207 	"/>
	<polygon fill="#C3DEE5" points="687,205 687,194.954 677.268,205 	"/>
	<polygon fill="#C3DEE5" points="650.877,204.527 680.211,175 649,175 649,205 651.155,205 	"/>
	<polygon fill="#D9E9ED" points="651.155,205 677.268,205 687,194.954 687,175 680.211,175 650.877,204.527 	"/>
	<polygon fill="#AFC8CE" points="675.526,207 687.321,207 689,207 689,205.007 689,193.212 689,175 687,175 687,194.954 687,205 
		677.268,205 651.155,205 649,205 649,207 652.896,207 	"/>
	<polygon fill="#AFC8CE" points="152.573,207 154,207 154,205.007 154,195.762 154,175 154.171,175 153,175 153,176.993 
		153,197.503 153,205 145.07,205 132,205 132,207 143.329,207 	"/>
	<polygon fill="#C3DEE5" points="194,175 173,175 173,197.895 194,176.993 	"/>
	<polygon fill="#C3DEE5" points="194,205 194,197.503 186.875,205 	"/>
	<polygon fill="#D9E9ED" points="194,197.503 194,176.993 173,197.895 173,205 186.875,205 	"/>
	<polygon fill="#AFC8CE" points="194.378,207 196,207 196,205.007 196,195.762 196,175 195.975,175 194,175 194,176.993 
		194,197.503 194,205 186.875,205 173,205 173,207 185.133,207 	"/>
	<polygon fill="#C3DEE5" points="238,175 217,175 217,197.895 238,176.993 	"/>
	<polygon fill="#C3DEE5" points="238,205 238,197.503 230.421,205 	"/>
	<polygon fill="#D9E9ED" points="238,197.503 238,176.993 217,197.895 217,205 230.421,205 	"/>
	<polygon fill="#AFC8CE" points="237.924,207 240,207 240,205.007 240,195.762 240,175 239.521,175 238,175 238,176.993 
		238,197.503 238,205 230.421,205 217,205 217,207 228.679,207 	"/>
	<polygon fill="#C3DEE5" points="275,175 254,175 254,197.895 275,176.993 	"/>
	<polygon fill="#C3DEE5" points="275,205 275,197.503 267,205 	"/>
	<polygon fill="#D9E9ED" points="275,197.503 275,176.993 254,197.895 254,205 267,205 	"/>
	<polygon fill="#AFC8CE" points="274.503,207 276,207 276,205.007 276,195.762 276,175 276.1,175 275,175 275,176.993 275,197.503 
		275,205 267,205 254,205 254,207 265.258,207 	"/>
	<polygon fill="#C3DEE5" points="339,205 339,197.503 331.448,205 	"/>
	<polygon fill="#C3DEE5" points="339,175 318,175 318,197.895 339,176.993 	"/>
	<polygon fill="#D9E9ED" points="339,197.503 339,176.993 318,197.895 318,205 331.448,205 	"/>
	<polygon fill="#AFC8CE" points="338.951,207 341,207 341,205.007 341,195.762 341,175 340.548,175 339,175 339,176.993 
		339,197.503 339,205 331.448,205 318,205 318,207 329.706,207 	"/>
	<polygon fill="#C3DEE5" points="426,205 426,197.503 418.54,205 	"/>
	<polygon fill="#C3DEE5" points="426,175 405,175 405,197.895 426,176.993 	"/>
	<polygon fill="#D9E9ED" points="426,197.503 426,176.993 405,197.895 405,205 418.54,205 	"/>
	<polygon fill="#AFC8CE" points="426.044,207 428,207 428,205.007 428,195.762 428,175 427.641,175 426,175 426,176.993 
		426,197.503 426,205 418.54,205 405,205 405,207 416.799,207 	"/>
	<polygon fill="#C3DEE5" points="490,205 490,197.503 482.989,205 	"/>
	<polygon fill="#C3DEE5" points="490,175 470,175 470,197.895 490,176.993 	"/>
	<polygon fill="#D9E9ED" points="490,197.503 490,176.993 470,197.895 470,205 482.989,205 	"/>
	<polygon fill="#AFC8CE" points="490.492,207 492,207 492,205.007 492,195.762 492,175 492.09,175 490,175 490,176.993 490,197.503 
		490,205 482.989,205 470,205 470,207 481.247,207 	"/>
	<polygon fill="#C3DEE5" points="527,175 506,175 506,197.895 527,176.993 	"/>
	<polygon fill="#C3DEE5" points="527,205 527,197.503 519.567,205 	"/>
	<polygon fill="#D9E9ED" points="527,197.503 527,176.993 506,197.895 506,205 519.567,205 	"/>
	<polygon fill="#AFC8CE" points="527.071,207 529,207 529,205.007 529,195.762 529,175 528.668,175 527,175 527,176.993 
		527,197.503 527,205 519.567,205 506,205 506,207 517.826,207 	"/>
	<polygon fill="#C3DEE5" points="583,175 562,175 562,197.895 583,176.993 	"/>
	<polygon fill="#C3DEE5" points="583,205 583,197.503 575.307,205 	"/>
	<polygon fill="#D9E9ED" points="583,197.503 583,176.993 562,197.895 562,205 575.307,205 	"/>
	<polygon fill="#AFC8CE" points="582.811,207 585,207 585,205.007 585,195.762 585,175 584.407,175 583,175 583,176.993 
		583,197.503 583,205 575.307,205 562,205 562,207 573.565,207 	"/>
	<polygon fill="#C3DEE5" points="626,205 626,197.503 618.854,205 	"/>
	<polygon fill="#C3DEE5" points="626,175 605,175 605,197.895 626,176.993 	"/>
	<polygon fill="#D9E9ED" points="626,197.503 626,176.993 605,197.895 605,205 618.854,205 	"/>
	<polygon fill="#AFC8CE" points="626.356,207 628,207 628,205.007 628,195.762 628,175 627.953,175 626,175 626,176.993 
		626,197.503 626,205 618.854,205 605,205 605,207 617.111,207 	"/>
	<polygon fill="#C3DEE5" points="733,205 733,197.503 725.105,205 	"/>
	<polygon fill="#C3DEE5" points="733,175 712,175 712,197.895 733,176.993 	"/>
	<polygon fill="#D9E9ED" points="733,197.503 733,176.993 712,197.895 712,205 725.105,205 	"/>
	<polygon fill="#AFC8CE" points="732.609,207 734,207 734,205.007 734,195.762 734,175 734.206,175 733,175 733,176.993 
		733,197.503 733,205 725.105,205 712,205 712,207 723.364,207 	"/>
	<path fill="#DC241F" d="M373.702,200.594c2.785,0,5.11,1.406,5.865,4.406h2.9c-0.812-4-4.424-7.199-8.765-7.199
		c-4.341,0-7.954,3.199-8.766,7.199h2.898C368.59,202,370.915,200.594,373.702,200.594z"/>
	<path fill="#DC241F" d="M373.702,212.405c-2.787,0-5.112-1.405-5.867-4.405h-2.898c0.812,5,4.424,7.199,8.766,7.199
		c4.341,0,7.954-2.199,8.765-7.199h-2.9C378.812,211,376.486,212.405,373.702,212.405z"/>
	<polygon fill="#113B92" points="367.834,208 379.566,208 382.467,208 384,208 384,205 382.467,205 379.566,205 367.834,205 
		364.936,205 363,205 363,208 364.936,208 	"/>
	<polygon fill="#CED3D6" points="306.392,158 338.416,158 366.285,130 334.262,130 	"/>
	<polygon fill="#4D4D4D" points="37.611,160 39.354,160 304.65,160 336.674,160 771,160 771,158 338.416,158 306.392,158 18,158 
		18,160 34.128,160 	"/>
</g>
</svg>
